<?xml version="1.0" encoding="UTF-8" standalone="no"?>
<svg
   xmlns:dc="http://purl.org/dc/elements/1.1/"
   xmlns:cc="http://creativecommons.org/ns#"
   xmlns:rdf="http://www.w3.org/1999/02/22-rdf-syntax-ns#"
   xmlns:svg="http://www.w3.org/2000/svg"
   xmlns="http://www.w3.org/2000/svg"
   viewBox="0 0 616 680"
   height="680"
   width="616"
   xml:space="preserve"
   id="svg4758"
   version="1.1"><metadata
     id="metadata4764"><rdf:RDF><cc:Work
         rdf:about=""><dc:format>image/svg+xml</dc:format><dc:type
           rdf:resource="http://purl.org/dc/dcmitype/StillImage" /><dc:title></dc:title></cc:Work></rdf:RDF></metadata><defs
     id="defs4762"><clipPath
       id="clipPath4774"
       clipPathUnits="userSpaceOnUse"><path
         id="path4772"
         d="M 0,510 H 462 V 0 H 0 Z" /></clipPath></defs><g
     transform="matrix(1.3333333,0,0,-1.3333333,0,680)"
     id="g4766"><g
       id="g4768"><g
         clip-path="url(#clipPath4774)"
         id="g4770"><g
           transform="translate(363.2744,445.9736)"
           id="g4776"><path
             id="path4778"
             style="fill:#d61624;fill-opacity:1;fill-rule:nonzero;stroke:none"
             d="M 0,0 -10.441,52.393 -20.882,0 c -46.736,-5.193 -83.083,-44.819 -83.083,-92.94 0,-51.652 41.872,-93.524 93.524,-93.524 51.652,0 93.523,41.872 93.523,93.524 C 83.082,-44.819 46.736,-5.193 0,0" /></g><g
           transform="translate(304.0107,369.4668)"
           id="g4780"><path
             id="path4782"
             style="fill:#ffffff;fill-opacity:1;fill-rule:nonzero;stroke:none"
             d="m 0,0 -6.178,20.8 h 5.112 L 2.666,6.622 6.4,20.8 h 4.666 L 4.889,0 V -10.311 H 0 Z" /></g><g
           transform="translate(320.8545,366.311)"
           id="g4784"><path
             id="path4786"
             style="fill:#ffffff;fill-opacity:1;fill-rule:nonzero;stroke:none"
             d="m 0,0 c 0,-1.126 0.229,-1.919 0.688,-2.378 0.46,-0.459 1.075,-0.688 1.845,-0.688 0.771,0 1.385,0.229 1.845,0.688 0.459,0.459 0.688,1.252 0.688,2.378 v 16.801 c 0,1.125 -0.229,1.917 -0.688,2.377 -0.46,0.459 -1.074,0.689 -1.845,0.689 -0.77,0 -1.385,-0.23 -1.845,-0.689 C 0.229,18.718 0,17.926 0,16.801 Z m -4.89,16.489 c 0,2.518 0.638,4.451 1.912,5.801 1.274,1.347 3.112,2.022 5.511,2.022 2.401,0 4.238,-0.675 5.512,-2.022 1.272,-1.35 1.911,-3.283 1.911,-5.801 V 0.312 c 0,-2.52 -0.639,-4.453 -1.911,-5.801 -1.274,-1.348 -3.111,-2.022 -5.512,-2.022 -2.399,0 -4.237,0.674 -5.511,2.022 -1.274,1.348 -1.912,3.281 -1.912,5.801 z" /></g><g
           transform="translate(338.6328,390.2671)"
           id="g4788"><path
             id="path4790"
             style="fill:#ffffff;fill-opacity:1;fill-rule:nonzero;stroke:none"
             d="m 0,0 v -24 c 0,-1.126 0.23,-1.911 0.689,-2.356 0.458,-0.444 1.074,-0.666 1.845,-0.666 0.77,0 1.385,0.222 1.844,0.666 0.46,0.445 0.689,1.23 0.689,2.356 V 0 h 4.621 v -23.689 c 0,-2.519 -0.615,-4.452 -1.843,-5.8 -1.23,-1.349 -3.045,-2.022 -5.445,-2.022 -2.4,0 -4.215,0.673 -5.444,2.022 -1.229,1.348 -1.845,3.281 -1.845,5.8 l 0,23.689 z" /></g><g
           transform="translate(363.2109,369.0225)"
           id="g4792"><path
             id="path4794"
             style="fill:#ffffff;fill-opacity:1;fill-rule:nonzero;stroke:none"
             d="M 0,0 H 4.712 L 2.354,15.733 Z M 11.156,-9.867 H 6.222 l -0.844,5.645 h -6.001 l -0.844,-5.645 h -4.489 l 4.977,31.112 h 7.157 z" /></g><g
           transform="translate(381.5215,385.8228)"
           id="g4796"><path
             id="path4798"
             style="fill:#ffffff;fill-opacity:1;fill-rule:nonzero;stroke:none"
             d="m 0,0 v -9.556 h 1.911 c 0.919,0 1.638,0.237 2.156,0.711 0.519,0.474 0.779,1.333 0.779,2.578 V -3.2 c 0,1.125 -0.201,1.94 -0.601,2.444 C 3.845,-0.252 3.216,0 2.355,0 Z m 5.334,-26.667 c -0.06,0.207 -0.118,0.399 -0.177,0.577 -0.06,0.178 -0.112,0.401 -0.156,0.667 -0.045,0.267 -0.075,0.607 -0.089,1.023 -0.016,0.414 -0.022,0.933 -0.022,1.555 v 4.889 c 0,1.451 -0.253,2.474 -0.756,3.066 C 3.63,-14.297 2.815,-14 1.689,-14 H 0 V -26.667 H -4.889 V 4.444 H 2.49 c 2.547,0 4.392,-0.593 5.533,-1.777 1.14,-1.186 1.711,-2.979 1.711,-5.378 v -2.445 c 0,-3.2 -1.067,-5.304 -3.2,-6.311 1.244,-0.504 2.096,-1.326 2.555,-2.467 0.46,-1.141 0.689,-2.526 0.689,-4.155 v -4.801 c 0,-0.77 0.03,-1.444 0.089,-2.022 0.06,-0.578 0.207,-1.163 0.445,-1.755 z" /></g><g
           transform="translate(399.3887,377.1558)"
           id="g4800"><path
             id="path4802"
             style="fill:#ffffff;fill-opacity:1;fill-rule:nonzero;stroke:none"
             d="M 0,0 H 6.712 V -4.445 H 0 v -9.111 H 8.444 V -18 H -4.889 V 13.111 H 8.444 V 8.667 L 0,8.667 Z" /></g><g
           transform="translate(325.2559,315.4438)"
           id="g4804"><path
             id="path4806"
             style="fill:#ffffff;fill-opacity:1;fill-rule:nonzero;stroke:none"
             d="M 0,0 H -4.889 V 31.112 H 0 V 17.778 h 5.556 v 13.334 h 4.977 V 0 H 5.556 V 13.334 H 0 Z" /></g><g
           transform="translate(344.2334,333.4443)"
           id="g4808"><path
             id="path4810"
             style="fill:#ffffff;fill-opacity:1;fill-rule:nonzero;stroke:none"
             d="M 0,0 H 6.712 V -4.444 H 0 v -9.112 H 8.445 V -18 H -4.889 V 13.112 H 8.445 V 8.667 L 0,8.667 Z" /></g><g
           transform="translate(360.5889,342.1118)"
           id="g4812"><path
             id="path4814"
             style="fill:#ffffff;fill-opacity:1;fill-rule:nonzero;stroke:none"
             d="m 0,0 v -9.557 h 1.911 c 0.919,0 1.637,0.238 2.155,0.712 0.519,0.474 0.779,1.333 0.779,2.578 v 3.066 c 0,1.126 -0.2,1.941 -0.6,2.445 C 3.845,-0.252 3.216,0 2.355,0 Z m 5.334,-26.668 c -0.06,0.207 -0.118,0.4 -0.178,0.577 -0.059,0.179 -0.111,0.401 -0.155,0.667 -0.045,0.267 -0.075,0.608 -0.089,1.022 -0.016,0.416 -0.023,0.934 -0.023,1.557 v 4.889 c 0,1.451 -0.252,2.474 -0.755,3.066 -0.504,0.593 -1.319,0.889 -2.446,0.889 H 0 V -26.668 H -4.889 V 4.444 H 2.49 c 2.547,0 4.392,-0.593 5.532,-1.777 1.141,-1.187 1.712,-2.979 1.712,-5.378 v -2.445 c 0,-3.2 -1.067,-5.304 -3.2,-6.311 1.244,-0.504 2.095,-1.327 2.555,-2.467 0.459,-1.141 0.689,-2.526 0.689,-4.155 v -4.801 c 0,-0.771 0.029,-1.444 0.089,-2.023 0.059,-0.578 0.207,-1.163 0.445,-1.755 z" /></g><g
           transform="translate(378.4561,333.4443)"
           id="g4816"><path
             id="path4818"
             style="fill:#ffffff;fill-opacity:1;fill-rule:nonzero;stroke:none"
             d="M 0,0 H 6.712 V -4.444 H 0 v -9.112 H 8.444 V -18 H -4.889 V 13.112 H 8.444 V 8.667 L 0,8.667 Z" /></g><g
           transform="translate(202.6904,404.8428)"
           id="g4820"><path
             id="path4822"
             style="fill:#d61624;fill-opacity:1;fill-rule:nonzero;stroke:none"
             d="m 0,0 c 0,51.652 -41.872,93.523 -93.524,93.523 -51.651,0 -93.523,-41.871 -93.523,-93.523 0,-48.122 36.346,-87.748 83.083,-92.94 l 10.44,-52.393 10.441,52.393 C -36.347,-87.748 0,-48.122 0,0" /></g><g
           transform="translate(60.3438,421.2769)"
           id="g4824"><path
             id="path4826"
             style="fill:#ffffff;fill-opacity:1;fill-rule:nonzero;stroke:none"
             d="m 0,0 -6.177,20.8 h 5.111 L 2.667,6.622 6.4,20.8 h 4.667 L 4.889,0 V -10.312 H 0 Z" /></g><g
           transform="translate(77.1875,418.1211)"
           id="g4828"><path
             id="path4830"
             style="fill:#ffffff;fill-opacity:1;fill-rule:nonzero;stroke:none"
             d="m 0,0 c 0,-1.126 0.229,-1.919 0.689,-2.378 0.459,-0.459 1.074,-0.689 1.844,-0.689 0.771,0 1.385,0.23 1.845,0.689 0.459,0.459 0.689,1.252 0.689,2.378 v 16.8 c 0,1.126 -0.23,1.918 -0.689,2.378 -0.46,0.459 -1.074,0.689 -1.845,0.689 -0.77,0 -1.385,-0.23 -1.844,-0.689 C 0.229,18.718 0,17.926 0,16.8 Z m -4.889,16.489 c 0,2.518 0.638,4.451 1.912,5.8 1.273,1.348 3.111,2.022 5.51,2.022 2.401,0 4.238,-0.674 5.512,-2.022 1.273,-1.349 1.911,-3.282 1.911,-5.8 V 0.311 c 0,-2.519 -0.638,-4.453 -1.911,-5.8 -1.274,-1.348 -3.111,-2.022 -5.512,-2.022 -2.399,0 -4.237,0.674 -5.51,2.022 -1.274,1.347 -1.912,3.281 -1.912,5.8 z" /></g><g
           transform="translate(94.9663,442.0771)"
           id="g4832"><path
             id="path4834"
             style="fill:#ffffff;fill-opacity:1;fill-rule:nonzero;stroke:none"
             d="m 0,0 v -24.001 c 0,-1.126 0.23,-1.911 0.689,-2.355 0.458,-0.444 1.074,-0.667 1.845,-0.667 0.769,0 1.384,0.223 1.844,0.667 0.459,0.444 0.689,1.229 0.689,2.355 V 0 h 4.621 v -23.689 c 0,-2.519 -0.614,-4.453 -1.844,-5.801 -1.229,-1.348 -3.044,-2.022 -5.444,-2.022 -2.4,0 -4.215,0.674 -5.444,2.022 -1.229,1.348 -1.845,3.282 -1.845,5.801 l 0,23.689 z" /></g><g
           transform="translate(119.5439,420.832)"
           id="g4836"><path
             id="path4838"
             style="fill:#ffffff;fill-opacity:1;fill-rule:nonzero;stroke:none"
             d="M 0,0 H 4.712 L 2.355,15.733 Z M 11.156,-9.867 H 6.222 l -0.844,5.645 h -6.001 l -0.843,-5.645 h -4.49 l 4.978,31.112 h 7.156 z" /></g><g
           transform="translate(137.8555,437.6328)"
           id="g4840"><path
             id="path4842"
             style="fill:#ffffff;fill-opacity:1;fill-rule:nonzero;stroke:none"
             d="m 0,0 v -9.557 h 1.911 c 0.919,0 1.637,0.238 2.155,0.712 0.519,0.474 0.779,1.333 0.779,2.578 v 3.066 c 0,1.126 -0.201,1.941 -0.6,2.445 C 3.844,-0.252 3.215,0 2.355,0 Z m 5.333,-26.667 c -0.059,0.207 -0.118,0.399 -0.177,0.577 -0.06,0.178 -0.112,0.401 -0.156,0.667 -0.045,0.266 -0.075,0.607 -0.089,1.022 -0.015,0.415 -0.022,0.934 -0.022,1.556 v 4.889 c 0,1.451 -0.253,2.474 -0.756,3.066 -0.504,0.593 -1.319,0.889 -2.445,0.889 H 0 V -26.667 H -4.889 V 4.444 h 7.378 c 2.548,0 4.392,-0.593 5.533,-1.777 1.141,-1.187 1.711,-2.979 1.711,-5.378 v -2.445 c 0,-3.2 -1.066,-5.304 -3.2,-6.311 1.244,-0.504 2.096,-1.327 2.555,-2.467 0.46,-1.141 0.689,-2.526 0.689,-4.155 v -4.801 c 0,-0.771 0.03,-1.444 0.09,-2.022 0.059,-0.578 0.207,-1.163 0.444,-1.755 z" /></g><g
           transform="translate(155.7222,428.9653)"
           id="g4844"><path
             id="path4846"
             style="fill:#ffffff;fill-opacity:1;fill-rule:nonzero;stroke:none"
             d="M 0,0 H 6.712 V -4.444 H 0 v -9.112 H 8.444 V -18 H -4.889 V 13.112 H 8.444 V 8.667 L 0,8.667 Z" /></g><g
           transform="translate(81.5889,367.2534)"
           id="g4848"><path
             id="path4850"
             style="fill:#ffffff;fill-opacity:1;fill-rule:nonzero;stroke:none"
             d="M 0,0 H -4.889 V 31.112 H 0 V 17.778 h 5.556 v 13.334 h 4.978 V 0 H 5.556 V 13.334 H 0 Z" /></g><g
           transform="translate(100.5669,385.2539)"
           id="g4852"><path
             id="path4854"
             style="fill:#ffffff;fill-opacity:1;fill-rule:nonzero;stroke:none"
             d="M 0,0 H 6.712 V -4.444 H 0 v -9.112 H 8.445 V -18 H -4.889 V 13.112 H 8.445 V 8.667 L 0,8.667 Z" /></g><g
           transform="translate(116.9224,393.9214)"
           id="g4856"><path
             id="path4858"
             style="fill:#ffffff;fill-opacity:1;fill-rule:nonzero;stroke:none"
             d="m 0,0 v -9.556 h 1.911 c 0.919,0 1.637,0.237 2.155,0.711 0.519,0.474 0.779,1.333 0.779,2.578 V -3.2 c 0,1.125 -0.201,1.94 -0.6,2.444 C 3.844,-0.252 3.215,0 2.355,0 Z m 5.333,-26.668 c -0.059,0.207 -0.118,0.4 -0.177,0.578 -0.06,0.178 -0.112,0.4 -0.156,0.666 -0.044,0.268 -0.075,0.608 -0.088,1.022 -0.016,0.416 -0.023,0.934 -0.023,1.557 v 4.889 c 0,1.451 -0.252,2.474 -0.756,3.066 C 3.63,-14.297 2.815,-14 1.688,-14 H 0 V -26.668 H -4.889 V 4.444 H 2.49 c 2.547,0 4.391,-0.593 5.532,-1.777 1.141,-1.186 1.712,-2.979 1.712,-5.378 v -2.445 c 0,-3.2 -1.067,-5.304 -3.2,-6.311 1.244,-0.504 2.095,-1.326 2.554,-2.467 0.46,-1.141 0.69,-2.526 0.69,-4.155 v -4.801 c 0,-0.771 0.029,-1.444 0.089,-2.023 0.059,-0.577 0.207,-1.162 0.445,-1.755 z" /></g><g
           transform="translate(134.7896,385.2539)"
           id="g4860"><path
             id="path4862"
             style="fill:#ffffff;fill-opacity:1;fill-rule:nonzero;stroke:none"
             d="M 0,0 H 6.712 V -4.444 H 0 v -9.112 H 8.444 V -18 H -4.889 V 13.112 H 8.444 V 8.667 L 0,8.667 Z" /></g><g
           transform="translate(352.833,207.9229)"
           id="g4864"><path
             id="path4866"
             style="fill:#d61624;fill-opacity:1;fill-rule:nonzero;stroke:none"
             d="m 0,0 c -51.651,0 -93.523,-41.871 -93.523,-93.523 0,-22.064 7.645,-42.339 20.424,-58.332 l -29.667,-44.434 44.434,29.667 c 15.993,-12.779 36.269,-20.425 58.332,-20.425 51.652,0 93.523,41.872 93.523,93.524 C 93.523,-41.871 51.652,0 0,0" /></g><g
           transform="translate(304.0107,130.833)"
           id="g4868"><path
             id="path4870"
             style="fill:#ffffff;fill-opacity:1;fill-rule:nonzero;stroke:none"
             d="m 0,0 -6.178,20.801 h 5.112 L 2.666,6.623 6.4,20.801 h 4.666 L 4.889,0 V -10.311 H 0 Z" /></g><g
           transform="translate(320.8545,127.6777)"
           id="g4872"><path
             id="path4874"
             style="fill:#ffffff;fill-opacity:1;fill-rule:nonzero;stroke:none"
             d="m 0,0 c 0,-1.126 0.229,-1.919 0.688,-2.378 0.46,-0.459 1.075,-0.688 1.845,-0.688 0.771,0 1.385,0.229 1.845,0.688 0.459,0.459 0.688,1.252 0.688,2.378 v 16.801 c 0,1.125 -0.229,1.917 -0.688,2.378 -0.46,0.459 -1.074,0.688 -1.845,0.688 -0.77,0 -1.385,-0.229 -1.845,-0.688 C 0.229,18.718 0,17.926 0,16.801 Z m -4.89,16.489 c 0,2.518 0.638,4.451 1.912,5.8 1.274,1.349 3.112,2.023 5.511,2.023 2.401,0 4.238,-0.674 5.512,-2.023 1.272,-1.349 1.911,-3.282 1.911,-5.8 V 0.312 c 0,-2.52 -0.639,-4.454 -1.911,-5.801 -1.274,-1.348 -3.111,-2.022 -5.512,-2.022 -2.399,0 -4.237,0.674 -5.511,2.022 -1.274,1.347 -1.912,3.281 -1.912,5.801 z" /></g><g
           transform="translate(338.6328,151.6338)"
           id="g4876"><path
             id="path4878"
             style="fill:#ffffff;fill-opacity:1;fill-rule:nonzero;stroke:none"
             d="m 0,0 v -24.001 c 0,-1.126 0.23,-1.91 0.689,-2.354 0.458,-0.446 1.074,-0.667 1.845,-0.667 0.77,0 1.385,0.221 1.844,0.667 0.46,0.444 0.689,1.228 0.689,2.354 V 0 h 4.621 v -23.689 c 0,-2.519 -0.615,-4.453 -1.843,-5.8 -1.23,-1.349 -3.045,-2.023 -5.445,-2.023 -2.4,0 -4.215,0.674 -5.444,2.023 -1.229,1.347 -1.845,3.281 -1.845,5.8 l 0,23.689 z" /></g><g
           transform="translate(363.2109,130.3887)"
           id="g4880"><path
             id="path4882"
             style="fill:#ffffff;fill-opacity:1;fill-rule:nonzero;stroke:none"
             d="M 0,0 H 4.712 L 2.355,15.733 Z M 11.156,-9.866 H 6.222 l -0.844,5.644 h -6.001 l -0.844,-5.644 h -4.489 l 4.977,31.111 h 7.157 z" /></g><g
           transform="translate(381.5225,147.1895)"
           id="g4884"><path
             id="path4886"
             style="fill:#ffffff;fill-opacity:1;fill-rule:nonzero;stroke:none"
             d="m 0,0 v -9.557 h 1.91 c 0.919,0 1.638,0.238 2.156,0.712 0.519,0.474 0.779,1.333 0.779,2.578 V -3.2 c 0,1.125 -0.201,1.94 -0.601,2.444 C 3.844,-0.252 3.215,0 2.354,0 Z m 5.333,-26.667 c -0.06,0.207 -0.118,0.399 -0.177,0.577 -0.06,0.179 -0.112,0.401 -0.156,0.667 -0.045,0.267 -0.075,0.607 -0.089,1.023 -0.015,0.414 -0.022,0.933 -0.022,1.555 v 4.889 c 0,1.451 -0.253,2.474 -0.756,3.066 -0.504,0.593 -1.319,0.889 -2.445,0.889 H 0 V -26.667 H -4.89 V 4.444 h 7.379 c 2.547,0 4.392,-0.592 5.533,-1.777 1.14,-1.187 1.711,-2.979 1.711,-5.378 v -2.444 c 0,-3.201 -1.067,-5.305 -3.2,-6.312 1.244,-0.504 2.096,-1.327 2.555,-2.467 0.46,-1.141 0.689,-2.526 0.689,-4.155 v -4.801 c 0,-0.77 0.03,-1.444 0.089,-2.021 0.06,-0.578 0.207,-1.164 0.445,-1.756 z" /></g><g
           transform="translate(399.3887,138.5225)"
           id="g4888"><path
             id="path4890"
             style="fill:#ffffff;fill-opacity:1;fill-rule:nonzero;stroke:none"
             d="M 0,0 H 6.712 V -4.444 H 0 v -9.112 H 8.444 V -18 H -4.889 V 13.111 H 8.444 V 8.667 L 0,8.667 Z" /></g><g
           transform="translate(325.2559,76.8105)"
           id="g4892"><path
             id="path4894"
             style="fill:#ffffff;fill-opacity:1;fill-rule:nonzero;stroke:none"
             d="M 0,0 H -4.889 V 31.112 H 0 V 17.778 h 5.556 v 13.334 h 4.977 V 0 H 5.556 V 13.334 H 0 Z" /></g><g
           transform="translate(344.2334,94.8105)"
           id="g4896"><path
             id="path4898"
             style="fill:#ffffff;fill-opacity:1;fill-rule:nonzero;stroke:none"
             d="M 0,0 H 6.712 V -4.444 H 0 v -9.112 H 8.445 V -18 H -4.889 V 13.112 H 8.445 V 8.668 H 0 Z" /></g><g
           transform="translate(360.5889,103.4785)"
           id="g4900"><path
             id="path4902"
             style="fill:#ffffff;fill-opacity:1;fill-rule:nonzero;stroke:none"
             d="m 0,0 v -9.557 h 1.911 c 0.919,0 1.637,0.238 2.155,0.711 0.519,0.475 0.78,1.334 0.78,2.578 V -3.2 c 0,1.125 -0.201,1.94 -0.601,2.444 C 3.845,-0.253 3.216,0 2.355,0 Z m 5.334,-26.668 c -0.06,0.207 -0.118,0.4 -0.178,0.577 -0.059,0.179 -0.111,0.401 -0.155,0.667 -0.045,0.268 -0.075,0.608 -0.089,1.022 -0.016,0.416 -0.022,0.934 -0.022,1.556 v 4.89 c 0,1.451 -0.253,2.474 -0.756,3.066 -0.504,0.593 -1.319,0.889 -2.446,0.889 H 0 V -26.668 H -4.889 V 4.444 H 2.49 c 2.547,0 4.392,-0.593 5.532,-1.778 1.141,-1.186 1.712,-2.978 1.712,-5.378 v -2.444 c 0,-3.2 -1.067,-5.305 -3.2,-6.312 1.244,-0.504 2.095,-1.326 2.555,-2.466 0.459,-1.141 0.689,-2.527 0.689,-4.156 v -4.801 c 0,-0.77 0.029,-1.443 0.089,-2.022 0.059,-0.577 0.207,-1.162 0.445,-1.755 z" /></g><g
           transform="translate(378.4561,94.8105)"
           id="g4904"><path
             id="path4906"
             style="fill:#ffffff;fill-opacity:1;fill-rule:nonzero;stroke:none"
             d="M 0,0 H 6.712 V -4.444 H 0 v -9.112 H 8.444 V -18 H -4.889 V 13.112 H 8.444 V 8.668 H 0 Z" /></g><g
           transform="translate(211.9326,11.6338)"
           id="g4908"><path
             id="path4910"
             style="fill:#d61624;fill-opacity:1;fill-rule:nonzero;stroke:none"
             d="m 0,0 -29.667,44.434 c 12.78,15.993 20.425,36.268 20.425,58.332 0,51.652 -41.872,93.523 -93.524,93.523 -51.651,0 -93.524,-41.871 -93.524,-93.523 0,-51.652 41.873,-93.524 93.524,-93.524 22.064,0 42.339,7.646 58.332,20.425 z" /></g><g
           transform="translate(60.3438,130.833)"
           id="g4912"><path
             id="path4914"
             style="fill:#ffffff;fill-opacity:1;fill-rule:nonzero;stroke:none"
             d="m 0,0 -6.177,20.801 h 5.111 L 2.667,6.623 6.4,20.801 h 4.667 L 4.889,0 V -10.311 H 0 Z" /></g><g
           transform="translate(77.1875,127.6777)"
           id="g4916"><path
             id="path4918"
             style="fill:#ffffff;fill-opacity:1;fill-rule:nonzero;stroke:none"
             d="m 0,0 c 0,-1.126 0.229,-1.919 0.689,-2.378 0.459,-0.459 1.074,-0.688 1.845,-0.688 0.77,0 1.384,0.229 1.844,0.688 0.459,0.459 0.689,1.252 0.689,2.378 v 16.801 c 0,1.125 -0.23,1.917 -0.689,2.378 -0.46,0.459 -1.074,0.688 -1.844,0.688 -0.771,0 -1.386,-0.229 -1.845,-0.688 C 0.229,18.718 0,17.926 0,16.801 Z m -4.889,16.489 c 0,2.518 0.638,4.451 1.912,5.8 1.273,1.349 3.111,2.023 5.511,2.023 2.4,0 4.237,-0.674 5.511,-2.023 1.273,-1.349 1.911,-3.282 1.911,-5.8 V 0.312 c 0,-2.52 -0.638,-4.454 -1.911,-5.801 -1.274,-1.348 -3.111,-2.022 -5.511,-2.022 -2.4,0 -4.238,0.674 -5.511,2.022 -1.274,1.347 -1.912,3.281 -1.912,5.801 z" /></g><g
           transform="translate(94.9663,151.6338)"
           id="g4920"><path
             id="path4922"
             style="fill:#ffffff;fill-opacity:1;fill-rule:nonzero;stroke:none"
             d="m 0,0 v -24.001 c 0,-1.126 0.23,-1.91 0.689,-2.354 0.458,-0.446 1.074,-0.667 1.845,-0.667 0.769,0 1.384,0.221 1.844,0.667 0.459,0.444 0.689,1.228 0.689,2.354 V 0 h 4.622 v -23.689 c 0,-2.519 -0.615,-4.453 -1.845,-5.8 -1.229,-1.349 -3.044,-2.023 -5.444,-2.023 -2.4,0 -4.215,0.674 -5.444,2.023 -1.229,1.347 -1.845,3.281 -1.845,5.8 l 0,23.689 z" /></g><g
           transform="translate(119.5439,130.3887)"
           id="g4924"><path
             id="path4926"
             style="fill:#ffffff;fill-opacity:1;fill-rule:nonzero;stroke:none"
             d="M 0,0 H 4.712 L 2.355,15.733 Z M 11.156,-9.866 H 6.222 l -0.844,5.644 h -6.001 l -0.843,-5.644 h -4.49 l 4.978,31.111 h 7.156 z" /></g><g
           transform="translate(137.8555,147.1895)"
           id="g4928"><path
             id="path4930"
             style="fill:#ffffff;fill-opacity:1;fill-rule:nonzero;stroke:none"
             d="m 0,0 v -9.557 h 1.911 c 0.919,0 1.637,0.238 2.155,0.712 0.519,0.474 0.779,1.333 0.779,2.578 V -3.2 c 0,1.125 -0.201,1.94 -0.6,2.444 C 3.844,-0.252 3.215,0 2.355,0 Z m 5.333,-26.667 c -0.059,0.207 -0.118,0.399 -0.177,0.577 -0.06,0.179 -0.112,0.401 -0.156,0.667 -0.045,0.267 -0.075,0.607 -0.089,1.023 -0.015,0.414 -0.022,0.933 -0.022,1.555 v 4.889 c 0,1.451 -0.253,2.474 -0.756,3.066 -0.504,0.593 -1.319,0.889 -2.445,0.889 H 0 V -26.667 H -4.889 V 4.444 h 7.378 c 2.548,0 4.392,-0.592 5.533,-1.777 1.141,-1.187 1.712,-2.979 1.712,-5.378 v -2.444 c 0,-3.201 -1.067,-5.305 -3.201,-6.312 1.245,-0.504 2.096,-1.327 2.555,-2.467 0.46,-1.141 0.69,-2.526 0.69,-4.155 v -4.801 c 0,-0.77 0.029,-1.444 0.089,-2.021 0.059,-0.578 0.207,-1.164 0.444,-1.756 z" /></g><g
           transform="translate(155.7222,138.5225)"
           id="g4932"><path
             id="path4934"
             style="fill:#ffffff;fill-opacity:1;fill-rule:nonzero;stroke:none"
             d="M 0,0 H 6.712 V -4.444 H 0 v -9.112 H 8.444 V -18 H -4.889 V 13.111 H 8.444 V 8.667 L 0,8.667 Z" /></g><g
           transform="translate(81.5894,76.8105)"
           id="g4936"><path
             id="path4938"
             style="fill:#ffffff;fill-opacity:1;fill-rule:nonzero;stroke:none"
             d="M 0,0 H -4.889 V 31.112 H 0 V 17.778 h 5.555 v 13.334 h 4.978 V 0 H 5.555 V 13.334 H 0 Z" /></g><g
           transform="translate(100.5674,94.8105)"
           id="g4940"><path
             id="path4942"
             style="fill:#ffffff;fill-opacity:1;fill-rule:nonzero;stroke:none"
             d="M 0,0 H 6.711 V -4.444 H 0 v -9.112 H 8.444 V -18 H -4.889 V 13.112 H 8.444 V 8.668 H 0 Z" /></g><g
           transform="translate(116.9224,103.4785)"
           id="g4944"><path
             id="path4946"
             style="fill:#ffffff;fill-opacity:1;fill-rule:nonzero;stroke:none"
             d="m 0,0 v -9.557 h 1.911 c 0.919,0 1.637,0.238 2.155,0.711 0.519,0.475 0.779,1.334 0.779,2.578 V -3.2 c 0,1.125 -0.201,1.94 -0.6,2.444 C 3.844,-0.253 3.215,0 2.355,0 Z m 5.333,-26.668 c -0.059,0.207 -0.118,0.4 -0.177,0.577 -0.06,0.179 -0.112,0.401 -0.156,0.667 -0.044,0.268 -0.075,0.608 -0.088,1.022 -0.016,0.416 -0.023,0.934 -0.023,1.556 v 4.89 c 0,1.451 -0.252,2.474 -0.756,3.066 -0.503,0.593 -1.318,0.889 -2.444,0.889 H 0 V -26.668 H -4.889 V 4.444 H 2.49 c 2.547,0 4.391,-0.593 5.532,-1.778 1.141,-1.186 1.712,-2.978 1.712,-5.378 v -2.444 c 0,-3.2 -1.067,-5.305 -3.2,-6.312 1.244,-0.504 2.095,-1.326 2.554,-2.466 0.46,-1.141 0.69,-2.527 0.69,-4.156 v -4.801 c 0,-0.77 0.029,-1.443 0.089,-2.022 0.059,-0.577 0.207,-1.162 0.445,-1.755 z" /></g><g
           transform="translate(134.7896,94.8105)"
           id="g4948"><path
             id="path4950"
             style="fill:#ffffff;fill-opacity:1;fill-rule:nonzero;stroke:none"
             d="M 0,0 H 6.712 V -4.444 H 0 v -9.112 H 8.444 V -18 H -4.889 V 13.112 H 8.444 V 8.668 H 0 Z" /></g></g></g></g></svg>